<svg id="svg" version="1.1" xmlns="http://www.w3.org/2000/svg" xmlns:xlink="http://www.w3.org/1999/xlink" width="400" height="22.700119474313023" viewBox="0, 0, 400,22.700119474313023"><g id="svgg"><path id="path0" d="M357.125 1.440 C 356.965 1.487,356.833 1.594,356.833 1.679 C 356.833 1.764,356.737 1.833,356.620 1.833 C 356.204 1.833,354.500 3.371,354.500 3.745 C 354.500 3.866,354.395 4.005,354.266 4.054 C 354.137 4.104,353.981 4.374,353.919 4.655 C 353.857 4.937,353.746 5.167,353.672 5.167 C 353.598 5.167,353.485 5.448,353.420 5.792 C 353.356 6.135,353.220 6.517,353.118 6.641 C 352.878 6.932,352.886 11.326,353.128 11.477 C 353.222 11.535,353.353 12.015,353.419 12.542 C 353.485 13.069,353.593 13.500,353.659 13.500 C 353.726 13.500,353.870 13.800,353.980 14.167 C 354.090 14.533,354.244 14.833,354.322 14.833 C 354.400 14.833,354.508 15.008,354.561 15.221 C 354.615 15.435,354.848 15.814,355.079 16.063 C 355.311 16.313,355.500 16.570,355.500 16.634 C 355.500 16.843,357.861 19.167,358.073 19.167 C 358.133 19.167,358.348 19.336,358.550 19.544 C 358.751 19.752,359.142 20.033,359.417 20.169 C 359.692 20.305,359.977 20.510,360.050 20.625 C 360.123 20.739,360.292 20.833,360.425 20.833 C 360.558 20.833,360.667 20.908,360.667 21.000 C 360.667 21.092,360.760 21.169,360.875 21.172 C 360.990 21.175,361.458 21.362,361.917 21.587 C 362.375 21.812,362.881 21.998,363.042 21.998 C 363.202 21.999,363.333 22.066,363.333 22.147 C 363.333 22.470,364.774 22.667,365.732 22.475 C 366.246 22.372,366.667 22.229,366.667 22.157 C 366.667 22.085,366.907 21.974,367.202 21.909 C 367.854 21.766,369.000 21.184,369.000 20.996 C 369.000 20.921,369.225 20.810,369.500 20.750 C 369.775 20.690,370.000 20.580,370.000 20.507 C 370.000 20.434,370.225 20.281,370.500 20.167 C 370.775 20.053,371.000 19.894,371.000 19.813 C 371.000 19.733,371.087 19.667,371.194 19.667 C 371.301 19.667,371.507 19.556,371.653 19.421 C 371.798 19.286,372.385 18.752,372.958 18.233 C 373.531 17.715,374.000 17.215,374.000 17.123 C 374.000 17.030,374.188 16.781,374.417 16.569 C 374.646 16.356,374.833 16.102,374.833 16.003 C 374.833 15.904,374.937 15.783,375.065 15.734 C 375.192 15.685,375.389 15.313,375.503 14.906 C 375.617 14.499,375.772 14.167,375.847 14.167 C 375.923 14.167,376.034 13.904,376.094 13.583 C 376.155 13.262,376.266 13.000,376.342 13.000 C 376.418 13.000,376.526 12.644,376.582 12.208 C 376.638 11.773,376.755 11.286,376.842 11.127 C 377.042 10.761,377.051 7.000,376.852 7.000 C 376.771 7.000,376.651 6.644,376.586 6.208 C 376.521 5.773,376.418 5.379,376.359 5.333 C 376.299 5.287,376.033 4.837,375.769 4.333 C 375.287 3.415,374.396 2.333,374.122 2.333 C 374.042 2.333,373.872 2.240,373.744 2.125 C 372.948 1.411,372.972 1.417,370.671 1.417 C 368.429 1.417,367.167 1.690,367.167 2.174 C 367.167 2.262,367.071 2.333,366.954 2.333 C 366.646 2.333,365.727 3.215,365.592 3.639 C 365.529 3.838,365.408 4.000,365.322 4.000 C 365.237 4.000,365.167 4.146,365.167 4.323 C 365.167 4.920,364.871 4.837,364.602 4.166 C 364.456 3.800,364.260 3.500,364.168 3.500 C 364.076 3.500,364.000 3.404,364.000 3.287 C 364.000 3.047,363.545 2.617,363.118 2.453 C 362.961 2.393,362.833 2.275,362.833 2.190 C 362.833 2.105,362.628 1.985,362.377 1.922 C 362.126 1.858,361.866 1.719,361.800 1.612 C 361.677 1.413,357.723 1.268,357.125 1.440 " stroke="none" fill="#ec3464" fill-rule="evenodd"></path><path id="path1" d="M60.500 0.479 C 60.500 0.559,60.213 0.670,59.861 0.726 C 59.145 0.841,58.748 1.197,58.578 1.875 C 58.515 2.127,58.411 2.333,58.347 2.333 C 58.210 2.333,57.736 3.384,57.575 4.042 C 57.514 4.294,57.411 4.500,57.347 4.500 C 57.282 4.500,57.134 4.875,57.016 5.333 C 56.899 5.792,56.743 6.167,56.670 6.167 C 56.597 6.167,56.488 6.429,56.428 6.750 C 56.367 7.071,56.250 7.333,56.167 7.333 C 56.083 7.333,55.966 7.596,55.906 7.917 C 55.845 8.238,55.730 8.500,55.648 8.500 C 55.567 8.500,55.500 8.579,55.500 8.676 C 55.500 8.773,55.355 9.169,55.179 9.557 C 55.002 9.944,54.807 10.465,54.744 10.714 C 54.682 10.963,54.572 11.167,54.500 11.167 C 54.429 11.167,54.321 11.429,54.261 11.750 C 54.201 12.071,54.088 12.333,54.011 12.333 C 53.934 12.333,53.821 12.596,53.761 12.917 C 53.701 13.237,53.587 13.500,53.509 13.500 C 53.431 13.500,53.277 13.875,53.167 14.333 C 53.057 14.792,52.903 15.167,52.824 15.167 C 52.746 15.167,52.633 15.429,52.572 15.750 C 52.512 16.071,52.402 16.333,52.328 16.333 C 52.254 16.333,52.144 16.558,52.083 16.833 C 52.023 17.108,51.919 17.333,51.852 17.333 C 51.785 17.333,51.630 17.727,51.508 18.208 C 51.386 18.690,51.203 19.137,51.101 19.202 C 50.836 19.373,50.857 21.702,51.125 21.792 C 51.240 21.830,51.333 21.962,51.333 22.084 C 51.333 22.731,54.333 22.865,54.767 22.238 C 54.889 22.061,55.063 21.829,55.154 21.723 C 55.245 21.616,55.368 21.335,55.428 21.098 C 55.487 20.861,55.603 20.667,55.685 20.667 C 55.766 20.667,55.833 20.547,55.833 20.400 C 55.833 20.112,56.149 19.330,56.717 18.208 L 57.076 17.500 61.205 17.500 C 64.764 17.500,65.333 17.535,65.333 17.750 C 65.333 17.887,65.396 18.000,65.473 18.000 C 65.550 18.000,65.712 18.412,65.833 18.917 C 65.954 19.421,66.110 19.833,66.180 19.833 C 66.250 19.833,66.356 20.058,66.417 20.333 C 66.477 20.608,66.596 20.833,66.680 20.833 C 66.764 20.833,66.833 20.978,66.833 21.155 C 66.833 21.332,66.946 21.589,67.083 21.726 C 67.221 21.864,67.333 22.047,67.333 22.135 C 67.333 22.877,70.299 22.828,70.930 22.075 C 71.375 21.543,71.471 19.295,71.059 19.033 C 70.958 18.969,70.822 18.673,70.758 18.375 C 70.693 18.077,70.575 17.833,70.494 17.833 C 70.414 17.833,70.299 17.571,70.239 17.250 C 70.179 16.929,70.069 16.667,69.995 16.667 C 69.921 16.667,69.810 16.442,69.750 16.167 C 69.690 15.892,69.585 15.667,69.518 15.667 C 69.451 15.667,69.300 15.292,69.183 14.833 C 69.065 14.375,68.909 14.000,68.836 14.000 C 68.763 14.000,68.655 13.737,68.594 13.417 C 68.534 13.096,68.413 12.833,68.326 12.833 C 68.238 12.833,68.166 12.665,68.166 12.458 C 68.165 12.252,68.015 11.858,67.833 11.583 C 67.651 11.308,67.502 10.948,67.501 10.783 C 67.500 10.618,67.353 10.205,67.173 9.866 C 66.993 9.527,66.716 8.931,66.557 8.542 C 66.399 8.152,66.218 7.833,66.156 7.833 C 66.094 7.833,66.003 7.581,65.952 7.272 C 65.902 6.963,65.705 6.367,65.514 5.947 C 65.323 5.528,65.167 5.106,65.167 5.009 C 65.167 4.912,65.100 4.833,65.019 4.833 C 64.937 4.833,64.821 4.571,64.761 4.250 C 64.701 3.929,64.586 3.667,64.506 3.667 C 64.425 3.667,64.306 3.423,64.241 3.125 C 63.949 1.792,63.138 0.842,62.183 0.714 C 61.807 0.664,61.500 0.558,61.500 0.478 C 61.500 0.398,61.275 0.333,61.000 0.333 C 60.725 0.333,60.500 0.399,60.500 0.479 M156.333 0.477 C 156.333 0.556,155.963 0.664,155.511 0.718 C 155.059 0.771,154.350 0.969,153.937 1.158 C 153.523 1.346,153.106 1.500,153.009 1.500 C 152.912 1.500,152.833 1.575,152.833 1.667 C 152.833 1.758,152.718 1.833,152.578 1.833 C 152.438 1.833,152.281 1.943,152.229 2.077 C 152.178 2.211,151.974 2.371,151.776 2.434 C 151.168 2.625,149.522 4.451,149.124 5.375 C 149.016 5.627,148.878 5.833,148.818 5.833 C 148.759 5.833,148.612 6.190,148.492 6.625 C 148.373 7.060,148.207 7.462,148.124 7.518 C 148.041 7.574,147.931 8.080,147.880 8.643 C 147.829 9.206,147.722 9.667,147.644 9.667 C 147.565 9.667,147.500 10.567,147.500 11.667 C 147.500 12.767,147.566 13.667,147.647 13.667 C 147.728 13.667,147.847 14.154,147.911 14.750 C 147.974 15.346,148.081 15.833,148.148 15.833 C 148.215 15.833,148.366 16.208,148.484 16.667 C 148.601 17.125,148.766 17.500,148.849 17.500 C 148.932 17.500,149.000 17.578,149.000 17.673 C 149.000 17.893,149.682 18.873,149.958 19.050 C 150.073 19.123,150.167 19.251,150.167 19.333 C 150.167 19.522,150.911 20.333,151.083 20.333 C 151.154 20.333,151.386 20.521,151.598 20.750 C 151.810 20.979,152.053 21.167,152.138 21.167 C 152.223 21.167,152.386 21.279,152.499 21.416 C 152.613 21.553,153.016 21.756,153.395 21.866 C 153.773 21.977,154.125 22.126,154.175 22.198 C 154.614 22.823,163.333 22.807,163.333 22.181 C 163.333 22.116,163.708 21.967,164.167 21.849 C 164.625 21.732,165.000 21.576,165.000 21.503 C 165.000 21.429,165.194 21.321,165.431 21.261 C 166.943 20.882,167.358 17.333,165.891 17.333 C 165.768 17.333,165.667 17.258,165.667 17.167 C 165.667 16.700,163.117 17.140,162.667 17.684 C 162.621 17.740,162.284 17.840,161.917 17.908 C 161.551 17.975,161.197 18.117,161.131 18.224 C 160.957 18.506,156.803 18.491,156.708 18.208 C 156.670 18.094,156.469 18.000,156.262 18.000 C 156.054 18.000,155.711 17.850,155.500 17.667 C 155.289 17.483,155.049 17.333,154.968 17.333 C 154.730 17.333,153.333 15.825,153.333 15.568 C 153.333 15.439,153.263 15.333,153.178 15.333 C 153.092 15.333,152.970 15.165,152.905 14.958 C 152.841 14.752,152.730 14.545,152.658 14.498 C 152.151 14.170,152.162 9.438,152.670 8.930 C 152.760 8.840,152.833 8.643,152.833 8.492 C 152.833 8.341,152.983 8.045,153.167 7.833 C 153.350 7.622,153.500 7.389,153.500 7.316 C 153.500 7.120,154.262 6.333,154.452 6.333 C 154.541 6.333,154.751 6.183,154.917 6.000 C 155.083 5.817,155.319 5.667,155.442 5.667 C 155.566 5.667,155.667 5.596,155.667 5.510 C 155.667 5.424,156.004 5.303,156.417 5.241 C 156.829 5.179,157.167 5.062,157.167 4.981 C 157.167 4.900,157.954 4.833,158.917 4.833 C 159.879 4.833,160.667 4.899,160.667 4.979 C 160.667 5.058,161.042 5.173,161.500 5.234 C 161.958 5.295,162.333 5.409,162.333 5.488 C 162.333 5.566,162.539 5.682,162.790 5.745 C 163.041 5.808,163.297 5.941,163.358 6.040 C 163.606 6.441,165.297 6.401,165.920 5.979 C 166.875 5.333,167.114 3.400,166.328 2.691 C 165.608 2.041,164.319 1.333,163.856 1.333 C 163.675 1.333,163.501 1.252,163.468 1.153 C 163.434 1.053,162.866 0.887,162.204 0.782 C 161.542 0.678,161.000 0.534,161.000 0.463 C 161.000 0.392,159.950 0.333,158.667 0.333 C 157.383 0.333,156.333 0.398,156.333 0.477 M183.000 0.500 C 183.000 0.592,182.767 0.667,182.483 0.667 C 181.915 0.667,180.833 1.585,180.833 2.067 C 180.833 2.213,180.767 2.333,180.685 2.333 C 180.604 2.333,180.488 2.596,180.428 2.917 C 180.367 3.237,180.250 3.500,180.167 3.500 C 180.083 3.500,179.966 3.762,179.906 4.083 C 179.845 4.404,179.737 4.667,179.664 4.667 C 179.591 4.667,179.435 5.042,179.317 5.500 C 179.200 5.958,179.046 6.333,178.976 6.333 C 178.906 6.333,178.799 6.596,178.739 6.917 C 178.679 7.237,178.569 7.500,178.495 7.500 C 178.421 7.500,178.310 7.725,178.250 8.000 C 178.190 8.275,178.085 8.500,178.018 8.500 C 177.951 8.500,177.800 8.875,177.683 9.333 C 177.565 9.792,177.409 10.167,177.336 10.167 C 177.263 10.167,177.155 10.429,177.094 10.750 C 177.034 11.071,176.919 11.333,176.839 11.333 C 176.759 11.333,176.640 11.577,176.576 11.875 C 176.511 12.173,176.410 12.454,176.352 12.500 C 176.191 12.626,175.333 14.804,175.333 15.087 C 175.333 15.222,175.264 15.333,175.180 15.333 C 175.096 15.333,174.977 15.558,174.917 15.833 C 174.856 16.108,174.738 16.333,174.653 16.333 C 174.569 16.333,174.500 16.466,174.500 16.627 C 174.500 16.789,174.362 17.183,174.192 17.502 C 174.023 17.822,173.830 18.308,173.762 18.582 C 173.695 18.856,173.557 19.132,173.455 19.195 C 173.022 19.462,173.217 21.546,173.726 22.083 C 174.807 23.226,177.488 22.645,177.766 21.208 C 177.823 20.910,177.934 20.667,178.011 20.667 C 178.088 20.667,178.201 20.404,178.261 20.083 C 178.321 19.762,178.437 19.500,178.519 19.500 C 178.600 19.500,178.667 19.426,178.667 19.335 C 178.667 19.244,178.831 18.794,179.031 18.335 L 179.396 17.500 183.531 17.500 C 187.096 17.500,187.667 17.534,187.667 17.750 C 187.667 17.887,187.736 18.000,187.820 18.000 C 187.904 18.000,188.027 18.244,188.092 18.542 C 188.158 18.840,188.351 19.345,188.522 19.664 C 188.693 19.984,188.833 20.377,188.833 20.539 C 188.833 20.701,188.900 20.833,188.982 20.833 C 189.064 20.833,189.179 21.027,189.239 21.264 C 189.592 22.671,192.166 23.213,193.266 22.113 C 193.785 21.593,193.794 19.542,193.280 18.583 C 193.133 18.308,192.883 17.765,192.724 17.375 C 192.566 16.985,192.375 16.667,192.301 16.667 C 192.227 16.667,192.167 16.495,192.167 16.285 C 192.167 16.075,192.021 15.618,191.843 15.269 C 191.665 14.920,191.472 14.416,191.413 14.150 C 191.355 13.884,191.241 13.667,191.161 13.667 C 191.081 13.667,190.966 13.404,190.906 13.083 C 190.845 12.762,190.738 12.500,190.666 12.500 C 190.595 12.500,190.485 12.296,190.423 12.047 C 190.360 11.799,190.164 11.278,189.988 10.890 C 189.811 10.502,189.667 10.068,189.667 9.926 C 189.667 9.783,189.598 9.667,189.513 9.667 C 189.429 9.667,189.310 9.442,189.250 9.167 C 189.190 8.892,189.079 8.667,189.005 8.667 C 188.931 8.667,188.821 8.404,188.761 8.083 C 188.701 7.762,188.587 7.500,188.509 7.500 C 188.431 7.500,188.277 7.125,188.167 6.667 C 188.057 6.208,187.903 5.833,187.824 5.833 C 187.746 5.833,187.633 5.571,187.572 5.250 C 187.512 4.929,187.400 4.667,187.322 4.667 C 187.245 4.667,187.133 4.404,187.072 4.083 C 187.012 3.762,186.906 3.500,186.836 3.500 C 186.767 3.500,186.614 3.157,186.496 2.737 C 186.231 1.790,185.205 0.667,184.606 0.667 C 184.375 0.667,184.140 0.592,184.083 0.500 C 184.027 0.408,183.760 0.333,183.490 0.333 C 183.221 0.333,183.000 0.408,183.000 0.500 M388.833 0.477 C 388.833 0.556,388.476 0.663,388.038 0.714 C 386.936 0.845,385.405 1.659,384.455 2.621 C 383.865 3.219,383.312 3.988,383.225 4.333 C 383.168 4.563,383.040 4.852,382.942 4.976 C 382.368 5.701,382.778 10.028,383.444 10.284 C 383.567 10.331,383.667 10.464,383.667 10.581 C 383.667 10.760,384.070 11.155,385.277 12.159 C 385.384 12.247,385.665 12.368,385.902 12.428 C 386.139 12.487,386.333 12.598,386.333 12.673 C 386.333 12.748,386.746 12.902,387.250 13.015 C 387.754 13.127,388.167 13.280,388.167 13.354 C 388.167 13.428,388.542 13.538,389.000 13.599 C 389.458 13.660,389.833 13.765,389.833 13.832 C 389.833 13.900,390.182 14.002,390.608 14.061 C 391.034 14.119,391.466 14.230,391.567 14.306 C 391.667 14.382,392.181 14.538,392.708 14.651 C 393.235 14.764,393.667 14.927,393.667 15.012 C 393.667 15.097,393.766 15.167,393.888 15.167 C 395.192 15.167,394.984 17.504,393.641 17.923 C 393.426 17.990,393.196 18.129,393.131 18.231 C 392.969 18.483,388.196 18.481,388.033 18.229 C 387.969 18.129,387.617 17.993,387.250 17.925 C 386.884 17.858,386.534 17.722,386.473 17.622 C 386.180 17.148,383.520 17.264,383.049 17.771 C 382.224 18.660,382.437 21.051,383.363 21.293 C 383.530 21.337,383.667 21.426,383.667 21.493 C 383.667 21.559,384.079 21.712,384.583 21.833 C 385.087 21.954,385.500 22.105,385.500 22.168 C 385.500 22.816,395.085 22.812,395.306 22.163 C 395.336 22.074,395.494 22.000,395.657 22.000 C 395.820 22.000,396.230 21.813,396.567 21.583 C 396.905 21.354,397.234 21.163,397.299 21.159 C 397.364 21.155,397.567 20.963,397.750 20.734 C 397.933 20.504,398.215 20.159,398.375 19.966 C 398.535 19.773,398.667 19.515,398.667 19.391 C 398.667 19.268,398.736 19.167,398.821 19.167 C 399.484 19.167,399.489 14.310,398.827 13.241 C 398.302 12.391,397.218 11.353,396.727 11.229 C 396.511 11.175,396.333 11.070,396.333 10.995 C 396.333 10.921,396.108 10.810,395.833 10.750 C 395.558 10.690,395.333 10.576,395.333 10.497 C 395.333 10.418,394.996 10.303,394.583 10.241 C 394.171 10.179,393.833 10.070,393.833 9.998 C 393.833 9.927,393.196 9.773,392.417 9.657 C 391.637 9.541,391.000 9.390,391.000 9.322 C 391.000 9.254,390.625 9.146,390.167 9.083 C 389.708 9.020,389.333 8.901,389.333 8.818 C 389.333 8.735,389.189 8.667,389.012 8.667 C 388.835 8.667,388.590 8.566,388.467 8.443 C 388.344 8.320,388.076 8.130,387.872 8.020 C 387.667 7.911,387.500 7.712,387.500 7.577 C 387.500 7.443,387.425 7.333,387.333 7.333 C 387.242 7.333,387.167 7.221,387.167 7.083 C 387.167 6.946,387.232 6.833,387.313 6.833 C 387.393 6.833,387.502 6.614,387.556 6.347 C 387.613 6.058,387.791 5.816,387.993 5.752 C 388.180 5.693,388.333 5.582,388.333 5.507 C 388.333 5.431,388.539 5.318,388.790 5.255 C 389.041 5.192,389.298 5.058,389.360 4.957 C 389.509 4.716,393.578 4.719,393.871 4.961 C 393.988 5.057,394.440 5.189,394.875 5.253 C 395.310 5.318,395.667 5.438,395.667 5.519 C 395.667 5.600,396.079 5.667,396.583 5.667 C 397.087 5.667,397.500 5.592,397.500 5.500 C 397.500 5.408,397.615 5.333,397.755 5.333 C 397.896 5.333,398.059 5.202,398.118 5.042 C 398.177 4.881,398.306 4.696,398.405 4.631 C 399.164 4.126,398.411 1.651,397.421 1.403 C 397.189 1.345,397.000 1.238,397.000 1.166 C 397.000 1.016,395.155 0.667,394.361 0.667 C 394.071 0.667,393.833 0.592,393.833 0.500 C 393.833 0.396,392.889 0.333,391.333 0.333 C 389.958 0.333,388.833 0.398,388.833 0.477 M1.708 0.839 C 1.502 0.921,1.333 1.098,1.333 1.231 C 1.333 1.364,1.240 1.503,1.125 1.542 C 0.961 1.596,0.917 3.759,0.917 11.608 L 0.917 21.605 1.395 22.049 C 2.628 23.191,5.322 22.672,5.330 21.292 C 5.332 21.040,5.408 20.833,5.500 20.833 C 5.606 20.833,5.667 19.583,5.667 17.417 L 5.667 14.000 10.083 14.000 L 14.500 14.000 14.500 17.807 C 14.500 22.437,14.531 22.516,16.398 22.635 C 17.442 22.702,18.500 22.439,18.500 22.114 C 18.500 22.038,18.613 21.864,18.750 21.726 C 18.967 21.510,19.000 20.170,19.000 11.716 C 19.000 -0.076,19.166 0.675,16.550 0.669 C 15.668 0.667,15.449 0.730,15.050 1.099 L 14.583 1.532 14.533 5.516 L 14.483 9.500 10.075 9.500 L 5.667 9.500 5.667 6.000 C 5.667 3.778,5.606 2.500,5.500 2.500 C 5.408 2.500,5.333 2.306,5.333 2.068 C 5.333 0.923,3.254 0.217,1.708 0.839 M29.333 0.786 C 29.005 0.908,28.469 1.473,28.208 1.972 C 27.942 2.482,27.902 20.920,28.167 21.083 C 28.258 21.140,28.333 21.315,28.333 21.473 C 28.333 22.390,28.508 22.413,36.050 22.464 L 43.018 22.511 43.592 21.969 C 44.597 21.021,44.304 18.921,43.109 18.505 C 42.814 18.402,40.621 18.333,37.642 18.333 L 32.667 18.333 32.667 16.167 L 32.667 14.000 36.917 14.000 C 39.639 14.000,41.167 13.940,41.167 13.833 C 41.167 13.742,41.373 13.665,41.625 13.664 C 42.080 13.661,42.833 13.050,42.833 12.685 C 42.833 12.583,42.908 12.500,43.000 12.500 C 43.092 12.500,43.167 12.088,43.167 11.583 C 43.167 11.079,43.092 10.667,43.000 10.667 C 42.908 10.667,42.833 10.560,42.833 10.429 C 42.833 9.598,42.252 9.500,37.311 9.500 L 32.667 9.500 32.667 7.333 L 32.667 5.167 37.667 5.167 C 40.889 5.167,42.667 5.107,42.667 5.000 C 42.667 4.908,42.787 4.833,42.933 4.833 C 43.569 4.833,44.167 3.856,44.167 2.816 C 44.167 2.275,44.109 1.833,44.040 1.833 C 43.970 1.833,43.838 1.666,43.748 1.461 C 43.410 0.697,43.153 0.671,36.167 0.682 C 32.546 0.688,29.471 0.735,29.333 0.786 M79.202 1.182 L 78.667 1.730 78.667 11.263 C 78.667 21.426,78.645 21.152,79.500 22.002 L 79.917 22.417 86.569 22.417 C 91.793 22.417,93.237 22.371,93.293 22.205 C 93.331 22.089,93.488 21.869,93.640 21.717 C 94.066 21.290,94.027 19.354,93.583 18.904 C 92.695 18.003,92.672 18.000,87.839 18.000 L 83.333 18.000 83.333 10.000 C 83.333 4.778,83.275 2.000,83.167 2.000 C 83.075 2.000,83.000 1.862,83.000 1.692 C 83.000 0.600,80.146 0.216,79.202 1.182 M97.083 0.826 C 95.585 1.467,95.776 4.833,97.311 4.833 C 97.507 4.833,97.667 4.908,97.667 5.000 C 97.667 5.104,98.694 5.167,100.417 5.167 L 103.167 5.167 103.167 13.391 L 103.167 21.615 103.570 22.084 C 104.353 22.995,106.756 22.822,107.198 21.824 C 107.317 21.554,107.471 21.333,107.541 21.333 C 107.610 21.333,107.667 17.696,107.667 13.250 L 107.667 5.167 110.417 5.167 C 112.139 5.167,113.167 5.104,113.167 5.000 C 113.167 4.908,113.314 4.833,113.494 4.833 C 113.894 4.833,114.500 4.213,114.500 3.802 C 114.500 3.636,114.575 3.500,114.667 3.500 C 114.758 3.500,114.833 3.237,114.833 2.917 C 114.833 2.596,114.758 2.333,114.667 2.333 C 114.575 2.333,114.500 2.159,114.500 1.946 C 114.500 1.733,114.307 1.376,114.070 1.154 L 113.640 0.750 105.528 0.716 C 101.067 0.698,97.267 0.747,97.083 0.826 M122.068 1.083 L 121.583 1.532 121.538 11.448 C 121.483 23.291,121.362 22.658,123.683 22.664 C 124.537 22.667,125.500 22.388,125.500 22.138 C 125.500 22.049,125.612 21.864,125.750 21.726 C 125.957 21.519,126.000 20.839,126.000 17.738 L 126.000 14.000 130.417 14.000 L 134.833 14.000 134.833 17.583 C 134.833 19.861,134.894 21.167,135.000 21.167 C 135.092 21.167,135.168 21.298,135.170 21.458 C 135.183 22.788,138.341 23.106,139.250 21.870 C 139.573 21.431,139.585 21.112,139.634 11.833 L 139.685 2.250 139.304 1.542 C 138.515 0.073,135.167 0.391,135.167 1.935 C 135.167 2.154,135.092 2.333,135.000 2.333 C 134.894 2.333,134.833 3.639,134.833 5.917 L 134.833 9.500 130.425 9.500 L 126.017 9.500 125.967 5.537 C 125.906 0.693,125.947 0.788,123.851 0.693 C 122.632 0.637,122.523 0.661,122.068 1.083 M202.333 0.803 C 201.910 0.995,201.333 1.562,201.333 1.787 C 201.333 1.904,201.258 2.000,201.167 2.000 C 200.854 2.000,200.948 21.010,201.264 21.644 C 201.614 22.345,202.285 22.667,203.401 22.667 C 205.482 22.667,205.667 22.291,205.667 18.070 L 205.667 14.833 208.750 14.833 C 210.446 14.833,211.833 14.900,211.833 14.982 C 211.833 15.064,212.023 15.178,212.254 15.236 C 212.860 15.388,213.284 15.876,213.524 16.699 C 213.639 17.094,213.785 17.454,213.849 17.500 C 213.912 17.546,213.991 18.488,214.024 19.594 C 214.082 21.570,214.092 21.613,214.570 22.057 C 215.792 23.188,217.856 22.834,218.625 21.361 C 218.861 20.909,218.918 17.833,218.690 17.833 C 218.611 17.833,218.505 17.373,218.454 16.810 C 218.402 16.247,218.289 15.741,218.201 15.685 C 218.113 15.629,217.988 15.265,217.922 14.875 C 217.857 14.485,217.736 14.167,217.652 14.167 C 217.568 14.167,217.498 14.073,217.495 13.958 C 217.488 13.690,216.737 12.833,216.508 12.833 C 216.412 12.833,216.333 12.758,216.333 12.667 C 216.333 12.575,216.427 12.499,216.542 12.497 C 216.757 12.494,217.500 11.790,217.500 11.590 C 217.500 11.527,217.594 11.372,217.708 11.244 C 218.246 10.645,218.347 10.472,218.442 10.000 C 218.497 9.721,218.608 9.453,218.688 9.403 C 218.879 9.285,218.877 5.547,218.686 5.428 C 218.604 5.378,218.490 5.081,218.431 4.768 C 218.372 4.455,218.214 4.156,218.079 4.105 C 217.944 4.053,217.831 3.914,217.829 3.797 C 217.822 3.458,216.279 2.034,215.783 1.910 C 215.536 1.848,215.333 1.745,215.333 1.681 C 215.333 1.438,214.000 0.991,212.815 0.837 C 211.426 0.657,202.719 0.629,202.333 0.803 M228.273 0.857 C 227.173 1.496,227.250 0.686,227.250 11.595 C 227.250 20.548,227.275 21.465,227.527 21.717 C 227.679 21.869,227.835 22.089,227.874 22.205 C 227.977 22.515,242.523 22.515,242.626 22.205 C 242.665 22.089,242.816 21.874,242.963 21.728 C 243.388 21.303,243.330 19.497,242.877 19.044 C 242.188 18.355,242.008 18.333,236.844 18.333 L 231.833 18.333 231.833 16.167 L 231.833 14.000 236.083 14.000 C 238.806 14.000,240.333 13.940,240.333 13.833 C 240.333 13.742,240.507 13.667,240.720 13.667 C 242.056 13.667,242.735 11.109,241.695 9.992 L 241.315 9.583 236.574 9.534 L 231.833 9.485 231.833 7.326 L 231.833 5.167 236.750 5.167 C 239.917 5.167,241.667 5.107,241.667 5.000 C 241.667 4.908,241.806 4.833,241.976 4.833 C 243.554 4.833,243.738 1.560,242.200 0.845 C 241.668 0.597,228.700 0.609,228.273 0.857 M265.202 1.104 L 264.667 1.574 264.667 11.595 L 264.667 21.615 265.063 22.076 C 265.763 22.891,267.712 22.876,268.605 22.049 L 269.083 21.606 269.134 17.803 L 269.184 14.000 273.592 14.000 L 278.000 14.000 278.000 17.667 C 278.000 19.683,278.057 21.333,278.126 21.333 C 278.195 21.333,278.350 21.554,278.469 21.824 C 278.911 22.822,281.314 22.995,282.097 22.084 L 282.500 21.615 282.500 11.626 L 282.500 1.637 282.042 1.152 C 281.202 0.261,278.636 0.501,278.419 1.490 C 278.357 1.771,278.238 2.000,278.153 2.000 C 278.065 2.000,278.000 3.577,278.000 5.750 L 278.000 9.500 273.594 9.500 L 269.188 9.500 269.136 5.537 C 269.072 0.696,269.111 0.788,267.027 0.693 C 265.811 0.638,265.707 0.661,265.202 1.104 M292.370 1.157 L 291.833 1.648 291.833 11.665 L 291.833 21.683 292.279 22.095 C 293.138 22.891,294.989 22.890,295.786 22.093 L 296.250 21.629 296.296 11.902 C 296.345 1.278,296.338 1.184,295.414 0.832 C 294.448 0.465,292.953 0.625,292.370 1.157 M306.717 0.835 C 306.515 0.917,306.178 1.156,305.967 1.366 L 305.583 1.750 305.583 11.762 C 305.583 20.444,305.617 21.805,305.833 22.012 C 306.744 22.879,308.875 22.923,309.591 22.091 C 309.996 21.619,310.000 21.583,310.000 18.224 L 310.000 14.833 313.167 14.833 C 315.014 14.833,316.333 14.898,316.333 14.989 C 316.333 15.074,316.491 15.194,316.684 15.256 C 317.153 15.404,317.667 15.856,317.667 16.120 C 317.667 16.238,317.733 16.333,317.814 16.333 C 318.084 16.333,318.333 17.800,318.333 19.397 C 318.333 20.273,318.408 21.026,318.500 21.083 C 318.592 21.140,318.668 21.313,318.670 21.468 C 318.682 22.688,321.473 23.099,322.605 22.048 L 323.083 21.603 323.073 19.148 C 323.067 17.662,322.993 16.606,322.884 16.472 C 322.786 16.350,322.650 15.987,322.583 15.667 C 322.516 15.346,322.404 15.008,322.333 14.917 C 322.263 14.825,322.153 14.506,322.089 14.208 C 322.026 13.910,321.903 13.667,321.817 13.667 C 321.730 13.667,321.574 13.479,321.470 13.250 C 321.365 13.021,321.179 12.833,321.057 12.833 C 320.934 12.833,320.833 12.758,320.833 12.667 C 320.833 12.575,320.947 12.500,321.087 12.500 C 321.226 12.500,321.432 12.294,321.544 12.042 C 321.657 11.790,321.913 11.450,322.114 11.287 C 322.316 11.125,322.532 10.825,322.596 10.621 C 322.660 10.417,322.795 10.197,322.897 10.131 C 323.175 9.954,323.154 4.802,322.875 4.708 C 322.760 4.670,322.667 4.530,322.667 4.398 C 322.667 4.265,322.554 4.113,322.417 4.060 C 322.279 4.008,322.167 3.867,322.167 3.747 C 322.167 3.407,320.738 2.024,320.262 1.905 C 320.026 1.846,319.833 1.730,319.833 1.649 C 319.833 1.567,319.740 1.500,319.625 1.499 C 319.510 1.498,319.209 1.390,318.956 1.257 C 317.931 0.723,307.858 0.376,306.717 0.835 M332.833 0.801 C 332.305 1.045,331.833 1.590,331.833 1.954 C 331.833 2.163,331.758 2.333,331.667 2.333 C 331.341 2.333,331.449 20.679,331.779 21.349 C 332.378 22.564,331.936 22.500,339.685 22.500 L 346.652 22.500 347.076 22.076 C 347.309 21.842,347.500 21.467,347.500 21.242 C 347.500 21.017,347.575 20.833,347.667 20.833 C 347.758 20.833,347.833 20.646,347.833 20.417 C 347.833 20.188,347.758 20.000,347.667 20.000 C 347.575 20.000,347.499 19.831,347.497 19.625 C 347.496 19.419,347.297 19.063,347.056 18.833 L 346.617 18.417 341.475 18.368 L 336.333 18.320 336.333 16.160 L 336.333 14.000 340.500 14.000 C 343.167 14.000,344.667 13.940,344.667 13.833 C 344.667 13.742,344.861 13.667,345.098 13.667 C 345.949 13.667,346.667 12.736,346.667 11.630 C 346.667 11.100,346.609 10.667,346.540 10.667 C 346.470 10.667,346.338 10.499,346.248 10.295 C 345.925 9.564,345.519 9.505,340.792 9.502 L 336.333 9.500 336.333 7.333 L 336.333 5.167 341.250 5.167 C 344.417 5.167,346.167 5.107,346.167 5.000 C 346.167 4.908,346.287 4.833,346.435 4.833 C 346.794 4.833,347.494 4.154,347.497 3.802 C 347.499 3.646,347.575 3.473,347.667 3.417 C 347.758 3.360,347.833 3.093,347.833 2.823 C 347.833 2.554,347.758 2.333,347.667 2.333 C 347.575 2.333,347.499 2.165,347.497 1.958 C 347.496 1.752,347.297 1.396,347.055 1.167 L 346.617 0.750 339.850 0.717 C 336.128 0.699,332.971 0.737,332.833 0.801 M212.818 5.590 C 214.619 6.628,214.671 8.835,212.912 9.644 C 212.639 9.770,212.267 9.956,212.083 10.059 C 211.884 10.170,210.528 10.269,208.708 10.305 L 205.667 10.365 205.667 7.751 L 205.667 5.137 208.958 5.199 C 211.854 5.255,212.318 5.302,212.818 5.590 M316.966 5.445 C 317.032 5.552,317.289 5.691,317.537 5.753 C 317.811 5.822,318.070 6.055,318.201 6.350 C 318.318 6.616,318.471 6.833,318.541 6.833 C 318.610 6.833,318.667 7.208,318.667 7.667 C 318.667 8.125,318.610 8.500,318.541 8.500 C 318.471 8.500,318.315 8.725,318.193 9.000 C 318.072 9.275,317.900 9.500,317.811 9.500 C 317.723 9.500,317.335 9.662,316.950 9.859 C 316.327 10.178,315.907 10.226,313.125 10.294 L 310.000 10.369 310.000 7.751 L 310.000 5.132 313.423 5.191 C 315.801 5.232,316.882 5.310,316.966 5.445 M61.405 8.415 C 61.466 8.737,61.581 9.000,61.661 9.000 C 61.741 9.000,61.858 9.244,61.920 9.542 C 61.982 9.840,62.128 10.234,62.245 10.419 C 62.361 10.604,62.510 10.998,62.575 11.294 C 62.640 11.591,62.756 11.833,62.833 11.833 C 62.910 11.833,63.026 12.077,63.091 12.375 C 63.156 12.673,63.293 12.972,63.396 13.039 C 63.499 13.106,62.515 13.163,61.208 13.164 C 58.944 13.167,58.833 13.151,58.833 12.833 C 58.833 12.650,58.905 12.500,58.992 12.500 C 59.080 12.500,59.201 12.237,59.261 11.917 C 59.321 11.596,59.437 11.333,59.519 11.333 C 59.600 11.333,59.667 11.254,59.667 11.158 C 59.667 11.061,59.819 10.648,60.004 10.241 C 60.190 9.833,60.387 9.275,60.442 9.000 C 60.497 8.725,60.599 8.500,60.669 8.500 C 60.740 8.500,60.845 8.309,60.903 8.077 C 61.042 7.526,61.267 7.678,61.405 8.415 M183.750 8.167 C 183.810 8.442,183.929 8.667,184.013 8.667 C 184.098 8.667,184.167 8.849,184.167 9.071 C 184.167 9.294,184.268 9.577,184.391 9.701 C 184.515 9.824,184.667 10.202,184.731 10.540 C 184.794 10.879,184.944 11.254,185.064 11.374 C 185.184 11.494,185.335 11.871,185.399 12.213 C 185.463 12.554,185.587 12.833,185.674 12.833 C 185.762 12.833,185.833 12.908,185.833 13.000 C 185.833 13.103,184.944 13.167,183.500 13.167 C 182.056 13.167,181.167 13.103,181.167 13.000 C 181.167 12.908,181.232 12.833,181.312 12.833 C 181.392 12.833,181.505 12.533,181.564 12.167 C 181.623 11.800,181.741 11.500,181.828 11.500 C 181.914 11.500,182.034 11.237,182.094 10.917 C 182.155 10.596,182.263 10.333,182.335 10.333 C 182.408 10.333,182.557 9.958,182.667 9.500 C 182.777 9.042,182.925 8.667,182.996 8.667 C 183.067 8.667,183.170 8.442,183.225 8.167 C 183.280 7.892,183.396 7.667,183.483 7.667 C 183.569 7.667,183.690 7.892,183.750 8.167 " stroke="none" fill="#2c64b4" fill-rule="evenodd"></path></g></svg>